<svg width="17" height="16" viewBox="0 0 17 16" fill="none" xmlns="http://www.w3.org/2000/svg">
<g clip-path="url(#clip0_108_471)">
<path d="M6.4954 6.9797C6.4954 7.05089 6.46712 7.11918 6.41677 7.16952C6.36643 7.21986 6.29815 7.24815 6.22695 7.24815C6.15575 7.24815 6.08747 7.21986 6.03713 7.16952C5.98678 7.11918 5.9585 7.05089 5.9585 6.9797C5.9585 6.9085 5.98678 6.84022 6.03713 6.78987C6.08747 6.73953 6.15575 6.71125 6.22695 6.71125C6.29815 6.71125 6.36643 6.73953 6.41677 6.78987C6.46712 6.84022 6.4954 6.9085 6.4954 6.9797ZM6.4954 6.9797H6.22695M9.17991 6.9797C9.17991 7.05089 9.15162 7.11918 9.10128 7.16952C9.05094 7.21986 8.98265 7.24815 8.91146 7.24815C8.84026 7.24815 8.77198 7.21986 8.72163 7.16952C8.67129 7.11918 8.64301 7.05089 8.64301 6.9797C8.64301 6.9085 8.67129 6.84022 8.72163 6.78987C8.77198 6.73953 8.84026 6.71125 8.91146 6.71125C8.98265 6.71125 9.05094 6.73953 9.10128 6.78987C9.15162 6.84022 9.17991 6.9085 9.17991 6.9797ZM9.17991 6.9797H8.91146M11.8644 6.9797C11.8644 7.05089 11.8361 7.11918 11.7858 7.16952C11.7354 7.21986 11.6672 7.24815 11.596 7.24815C11.5248 7.24815 11.4565 7.21986 11.4061 7.16952C11.3558 7.11918 11.3275 7.05089 11.3275 6.9797C11.3275 6.9085 11.3558 6.84022 11.4061 6.78987C11.4565 6.73953 11.5248 6.71125 11.596 6.71125C11.6672 6.71125 11.7354 6.73953 11.7858 6.78987C11.8361 6.84022 11.8644 6.9085 11.8644 6.9797ZM11.8644 6.9797H11.596M1.93174 9.13446C1.93174 10.2798 2.73566 11.2778 3.8696 11.4446C4.64774 11.5591 5.43377 11.6472 6.22695 11.7087V15.0332L9.22214 12.0387C9.37044 11.891 9.56983 11.8059 9.77909 11.8011C11.1762 11.7667 12.5699 11.6476 13.9526 11.4446C15.0873 11.2778 15.8912 10.2806 15.8912 9.13374V4.82565C15.8912 3.67883 15.0873 2.68162 13.9533 2.51483C12.2839 2.26979 10.5988 2.14705 8.91146 2.14758C7.1991 2.14758 5.51538 2.27286 3.8696 2.51483C2.73566 2.68162 1.93174 3.67954 1.93174 4.82565V9.13374V9.13446Z" stroke="#A1A3A7" stroke-width="1.0738" stroke-linecap="round" stroke-linejoin="round"/>
</g>
<defs>
<clipPath id="clip0_108_471">
<rect width="16" height="16" fill="white" transform="translate(0.5)"/>
</clipPath>
</defs>
</svg>
