<svg width="716" height="98" viewBox="0 0 716 98" fill="none" xmlns="http://www.w3.org/2000/svg">
<path d="M43.13 86.26C66.95 86.26 86.26 66.95 86.26 43.13C86.26 19.31 66.95 0 43.13 0C19.31 0 0 19.31 0 43.13C0 66.95 19.31 86.26 43.13 86.26Z" fill="#FC8001"/>
<path d="M43.21 2.39999C37.9934 2.39411 32.8379 3.52199 28.1004 5.70556C23.3628 7.88913 19.1564 11.0762 15.7724 15.0462C12.3883 19.0161 9.90744 23.6741 8.50152 28.6976C7.09561 33.7211 6.79824 38.9902 7.62999 44.14C12.29 31.97 25.01 23.23 39.99 23.23C52.5 23.23 63.44 29.32 69.42 38.42H69.53C73.0157 38.3299 76.4146 39.5139 79.09 41.75C79.19 40.66 79.24 39.56 79.24 38.44C79.24 28.8922 75.4471 19.7354 68.6958 12.9841C61.9445 6.23283 52.7878 2.43999 43.24 2.43999" fill="#FDCC01"/>
<path d="M79.0899 41.75C76.4145 39.5139 73.0156 38.3299 69.5299 38.42H69.4199C58.8199 38.49 47.6699 47.7 44.4199 59.06C42.7199 65.11 43.6199 70.55 46.4199 74.32C45.3499 74.42 44.2499 74.48 43.1499 74.48C34.5784 74.4866 26.2858 71.4346 19.7636 65.8729C13.2413 60.3113 8.91758 52.6049 7.56995 44.14C6.33142 47.4113 5.70435 50.8822 5.71995 54.38C5.75551 58.6561 6.7128 62.8742 8.52654 66.7467C10.3403 70.6193 12.9678 74.0551 16.23 76.82C21.3472 80.8958 27.3241 83.755 33.7087 85.1815C40.0934 86.6079 46.7188 86.5643 53.0841 85.0539C59.4494 83.5435 65.3881 80.6058 70.4512 76.4629C75.5143 72.3201 79.5694 67.0804 82.3099 61.14C82.5599 60.46 82.79 59.76 82.99 59.06C84.99 51.81 83.3299 45.43 79.0899 41.75Z" fill="#FD0024"/>
<path d="M191.06 52.44L193.85 42.04C193.985 41.532 193.984 40.9975 193.848 40.4899C193.711 39.9824 193.444 39.5196 193.072 39.148C192.7 38.7763 192.238 38.5088 191.73 38.3723C191.222 38.2357 190.688 38.2349 190.18 38.37L179.78 41.15C179.275 41.2887 178.816 41.557 178.447 41.9282C178.078 42.2994 177.813 42.7606 177.677 43.2661C177.542 43.7715 177.541 44.3036 177.675 44.8095C177.809 45.3154 178.072 45.7775 178.44 46.15L186.05 53.76C186.421 54.1302 186.882 54.3968 187.388 54.5333C187.894 54.6698 188.427 54.6713 188.934 54.5378C189.441 54.4043 189.903 54.1404 190.277 53.7723C190.65 53.4043 190.92 52.9449 191.06 52.44Z" fill="#FDCC01"/>
<path d="M313.21 39.72V75.24C313.21 75.415 313.14 75.5829 313.017 75.7067C312.893 75.8305 312.725 75.9 312.55 75.9H304.25C304.077 75.8974 303.911 75.8267 303.79 75.7032C303.668 75.5797 303.6 75.4133 303.6 75.24V42.83C303.6 32.57 297.97 26.54 288.31 26.54C279.11 26.54 271.9 32.93 271.9 43.06V75.24C271.9 75.4133 271.832 75.5797 271.71 75.7032C271.589 75.8267 271.423 75.8974 271.25 75.9H262.95C262.777 75.8974 262.611 75.8267 262.49 75.7032C262.368 75.5797 262.3 75.4133 262.3 75.24V42.83C262.3 32.53 256.72 26.53 247.01 26.53C238.01 26.53 230.54 32.68 230.54 43.05V75.23C230.54 75.4033 230.472 75.5697 230.35 75.6932C230.229 75.8167 230.063 75.8874 229.89 75.89H221.65C221.476 75.8874 221.309 75.8171 221.186 75.6938C221.063 75.5706 220.993 75.4042 220.99 75.23V19.23C220.993 19.0567 221.063 18.8914 221.187 18.7698C221.31 18.6481 221.477 18.58 221.65 18.58H229.83C230.002 18.58 230.168 18.6485 230.29 18.7704C230.411 18.8923 230.48 19.0576 230.48 19.23V24.01C230.484 24.1402 230.527 24.2662 230.603 24.3721C230.679 24.4779 230.785 24.559 230.907 24.6049C231.029 24.6509 231.161 24.6598 231.288 24.6304C231.415 24.6011 231.531 24.5348 231.62 24.44C236.19 19.25 242.77 17.44 248.71 17.44C257.71 17.44 264.86 21.26 268.71 27.65C268.767 27.7475 268.849 27.8282 268.947 27.8844C269.046 27.9405 269.157 27.97 269.27 27.97C269.383 27.97 269.494 27.9405 269.592 27.8844C269.691 27.8282 269.773 27.7475 269.83 27.65C274.52 19.98 282.75 17.44 290.01 17.44C303.78 17.46 313.21 26.36 313.21 39.72Z" fill="white"/>
<path d="M380.51 46.46C380.51 63.27 368.26 75.46 352.68 75.46C344.61 75.46 338.47 72.6 334.17 68.09C334.08 67.9954 333.963 67.9303 333.835 67.9031C333.707 67.8759 333.574 67.888 333.453 67.9377C333.332 67.9873 333.229 68.0724 333.157 68.1816C333.085 68.2909 333.048 68.4193 333.05 68.55V97.07C333.05 97.2424 332.981 97.4077 332.86 97.5296C332.738 97.6515 332.572 97.72 332.4 97.72H324.16C323.987 97.72 323.82 97.6519 323.697 97.5303C323.573 97.4086 323.503 97.2433 323.5 97.07V19.28C323.503 19.1067 323.573 18.9414 323.697 18.8198C323.82 18.6982 323.987 18.63 324.16 18.63H332.4C332.572 18.63 332.738 18.6985 332.86 18.8204C332.981 18.9423 333.05 19.1076 333.05 19.28V24.37C333.048 24.5008 333.085 24.6292 333.157 24.7384C333.229 24.8477 333.332 24.9327 333.453 24.9824C333.574 25.0321 333.707 25.0441 333.835 25.0169C333.963 24.9897 334.08 24.9246 334.17 24.83C338.47 20.32 344.61 17.46 352.68 17.46C368.26 17.46 380.51 29.65 380.51 46.46ZM332.51 46.46C332.51 57.88 340.36 66.46 351.61 66.46C363.15 66.46 370.71 57.46 370.71 46.46C370.71 35.46 362.97 26.46 351.61 26.46C340.25 26.46 332.47 35.09 332.47 46.46H332.51Z" fill="white"/>
<path d="M488.72 30.39C488.678 30.4673 488.62 30.5351 488.55 30.589C488.481 30.643 488.401 30.682 488.315 30.7036C488.23 30.7252 488.141 30.7289 488.054 30.7145C487.967 30.7001 487.884 30.6679 487.81 30.62C482.541 27.5451 476.561 25.8975 470.46 25.84C462.84 25.84 457.92 29.06 457.92 34.1C457.92 38.55 461.92 40.6 468.7 41.42L475.15 42.24C486.98 43.82 493.95 48.8 493.95 58C493.95 68.6 484.46 75.46 469.29 75.46C462.59 75.46 453.59 73.89 446.35 68.68C446.215 68.5798 446.123 68.4329 446.092 68.2681C446.06 68.1033 446.092 67.9327 446.18 67.79L449.93 61.79C449.976 61.7123 450.038 61.6453 450.112 61.5933C450.186 61.5414 450.271 61.5058 450.36 61.4888C450.448 61.4718 450.54 61.4738 450.628 61.4947C450.716 61.5156 450.798 61.5549 450.87 61.61C454.97 64.61 460.44 67.1 469.34 67.1C478.48 67.1 484.11 64.1 484.11 58.61C484.11 54.51 480.48 51.93 472.92 50.99L466.48 50.23C454 48.71 447.96 43.08 447.96 34.65C447.96 23.98 456.81 17.54 470.34 17.54C478.86 17.54 486.66 19.74 492.04 23.23C492.177 23.3254 492.274 23.4677 492.313 23.63C492.351 23.7922 492.329 23.9631 492.25 24.11L488.72 30.39Z" fill="white"/>
<path d="M537.6 30.39C537.557 30.4676 537.498 30.5356 537.427 30.5896C537.357 30.6437 537.276 30.6827 537.19 30.7042C537.104 30.7258 537.014 30.7294 536.926 30.7149C536.838 30.7004 536.755 30.6681 536.68 30.62C531.412 27.5416 525.431 25.8938 519.33 25.84C511.71 25.84 506.79 29.06 506.79 34.1C506.79 38.55 510.79 40.6 517.57 41.42L524.02 42.24C535.85 43.82 542.82 48.8 542.82 58C542.82 68.6 533.33 75.46 518.16 75.46C511.46 75.46 502.46 73.89 495.22 68.68C495.085 68.5798 494.993 68.4329 494.962 68.2681C494.93 68.1033 494.962 67.9327 495.05 67.79L498.8 61.79C498.846 61.7123 498.908 61.6453 498.982 61.5933C499.057 61.5414 499.141 61.5058 499.23 61.4888C499.318 61.4718 499.41 61.4738 499.498 61.4947C499.586 61.5156 499.668 61.5549 499.74 61.61C503.84 64.61 509.32 67.1 518.22 67.1C527.36 67.1 532.98 64.1 532.98 58.61C532.98 54.51 529.35 51.93 521.79 50.99L515.35 50.23C502.87 48.71 496.83 43.08 496.83 34.65C496.83 23.98 505.68 17.54 519.21 17.54C527.73 17.54 535.53 19.74 540.91 23.23C541.049 23.3239 541.147 23.4663 541.186 23.6292C541.225 23.7921 541.201 23.9636 541.12 24.11L537.6 30.39Z" fill="white"/>
<path d="M144.29 60.79C144.17 60.6715 144.008 60.6051 143.84 60.6051C143.671 60.6051 143.51 60.6715 143.39 60.79C135.16 68.57 123.54 68.34 115.82 60.62C107.91 52.71 107.82 40.82 116.11 32.57C124.19 24.49 135.75 24.41 143.66 31.88C143.719 31.9399 143.789 31.9874 143.866 32.0199C143.943 32.0524 144.026 32.0691 144.11 32.0691C144.194 32.0691 144.277 32.0524 144.354 32.0199C144.431 31.9874 144.501 31.9399 144.56 31.88L150.02 26.42C150.083 26.3577 150.132 26.2837 150.166 26.2022C150.2 26.1207 150.217 26.0333 150.217 25.945C150.217 25.8567 150.2 25.7693 150.166 25.6878C150.132 25.6063 150.083 25.5323 150.02 25.47C138.1 14.02 120.73 14.13 109.2 25.66C97.52 37.34 97.56 55.03 109.49 66.96C121.25 78.72 138.64 78.96 150.33 67.78C150.399 67.7163 150.454 67.639 150.492 67.553C150.53 67.4669 150.549 67.374 150.549 67.28C150.549 67.1861 150.53 67.0931 150.492 67.0071C150.454 66.921 150.399 66.8437 150.33 66.78L144.29 60.79Z" fill="white"/>
<path d="M164.62 46.44C164.789 46.4374 164.95 46.3692 165.07 46.2497C165.189 46.1302 165.257 45.969 165.26 45.8C165.58 34.49 173.96 26.43 184.88 26.43C196.07 26.43 204.51 34.81 204.51 46.43C204.51 57.86 196.39 66.08 185.51 66.43C185.339 66.4326 185.177 66.5023 185.057 66.6239C184.937 66.7455 184.87 66.9094 184.87 67.08V74.79C184.87 74.9677 184.941 75.1381 185.066 75.2638C185.192 75.3894 185.362 75.46 185.54 75.46C202.08 75.13 214.28 62.76 214.28 46.46C214.28 29.93 201.74 17.46 184.87 17.46C168.24 17.46 155.76 29.58 155.41 45.75C155.409 45.8388 155.425 45.9271 155.458 46.0095C155.491 46.0919 155.54 46.167 155.603 46.2303C155.665 46.2935 155.739 46.3438 155.821 46.3781C155.903 46.4124 155.991 46.43 156.08 46.43L164.62 46.44Z" fill="white"/>
<path d="M439.83 18.63H431.59C431.417 18.6326 431.251 18.7033 431.13 18.8268C431.008 18.9503 430.94 19.1167 430.94 19.29V24.29C425.578 19.5503 418.646 16.9734 411.49 17.06C394.97 17.06 382.49 29.6 382.49 46.47C382.49 63.1 394.62 75.57 410.79 75.93C410.968 75.93 411.138 75.8594 411.264 75.7337C411.389 75.6081 411.46 75.4377 411.46 75.26V66.73C411.461 66.6459 411.446 66.5624 411.415 66.4843C411.384 66.4061 411.338 66.3348 411.28 66.2745C411.221 66.2141 411.151 66.1659 411.074 66.1325C410.997 66.0991 410.914 66.0813 410.83 66.08C399.52 65.77 391.46 57.39 391.46 46.47C391.46 35.28 399.83 26.84 411.46 26.84C421.4 26.84 430.91 33.84 430.91 41.72V75.27C430.91 75.4433 430.978 75.6097 431.1 75.7332C431.221 75.8567 431.387 75.9273 431.56 75.93H439.8C439.974 75.9274 440.141 75.857 440.264 75.7338C440.387 75.6106 440.457 75.4442 440.46 75.27V19.29C440.458 19.1207 440.392 18.9586 440.275 18.8362C440.158 18.7137 439.999 18.6401 439.83 18.63Z" fill="white"/>
<path d="M713.37 55.28C706.6 55.28 703.48 51.81 703.48 45.05V3.38H682.72V34.32C680.335 29.2009 676.538 24.8691 671.775 21.834C667.013 18.7988 661.482 17.1865 655.835 17.1865C650.187 17.1865 644.657 18.7988 639.895 21.834C635.132 24.8691 631.335 29.2009 628.95 34.32V17.8H608.49V46.92C608.49 52.17 605.73 55.73 601.1 55.73C596.47 55.73 593.72 52.17 593.72 46.92V17.8H572.97V47.18C572.97 65.18 583.97 76.47 601.1 76.47C614.83 76.47 624.62 68.86 627.83 56.52C629.834 62.3072 633.581 67.3321 638.555 70.9046C643.53 74.4771 649.488 76.4221 655.613 76.4726C661.737 76.523 667.727 74.6763 672.759 71.1861C677.792 67.696 681.621 62.7334 683.72 56.98C686.72 70.18 696.72 76.03 710.16 76.03H715.41V55.28H713.37ZM655.86 55.73C654.097 55.732 652.373 55.2108 650.906 54.2326C649.439 53.2543 648.296 51.8628 647.62 50.2343C646.945 48.6058 646.767 46.8135 647.111 45.0842C647.454 43.3549 648.303 41.7664 649.55 40.5197C650.796 39.273 652.385 38.4242 654.114 38.0807C655.843 37.7373 657.636 37.9145 659.264 38.5902C660.893 39.2658 662.284 40.4093 663.263 41.8761C664.241 43.3429 664.762 45.0669 664.76 46.83C664.752 49.188 663.812 51.4472 662.144 53.1145C660.477 54.7819 658.218 55.7221 655.86 55.73Z" fill="white"/>
<path d="M556.069 74.1272C554.751 74.1272 553.621 73.6555 552.678 72.7122C551.735 71.7689 551.263 70.6387 551.263 69.3216C551.263 68.0046 551.735 66.8744 552.678 65.9311C553.621 64.9877 554.751 64.5161 556.069 64.5161C557.386 64.5161 558.516 64.9877 559.459 65.9311C560.402 66.8744 560.874 68.0046 560.874 69.3216C560.874 70.1937 560.652 70.9947 560.207 71.7244C559.78 72.4541 559.201 73.0415 558.471 73.4864C557.759 73.9136 556.958 74.1272 556.069 74.1272Z" fill="white"/>
</svg>
